<?xml version="1.0" encoding="UTF-8" standalone="no"?>
<svg
   xmlns:dc="http://purl.org/dc/elements/1.1/"
   xmlns:cc="http://creativecommons.org/ns#"
   xmlns:rdf="http://www.w3.org/1999/02/22-rdf-syntax-ns#"
   xmlns:svg="http://www.w3.org/2000/svg"
   xmlns="http://www.w3.org/2000/svg"
   xmlns:xlink="http://www.w3.org/1999/xlink"
   xmlns:sodipodi="http://sodipodi.sourceforge.net/DTD/sodipodi-0.dtd"
   xmlns:inkscape="http://www.inkscape.org/namespaces/inkscape"
   version="1.1"
   viewBox="0 0 256 256"
   x="0px"
   y="0px"
   id="svg79"
   sodipodi:docname="icon.svg"
   width="256"
   height="256"
   inkscape:version="1.0.2 (e86c870879, 2021-01-15)">
  <metadata
     id="metadata85">
    <rdf:RDF>
      <cc:Work
         rdf:about="">
        <dc:format>image/svg+xml</dc:format>
        <dc:type
           rdf:resource="http://purl.org/dc/dcmitype/StillImage" />
        <dc:title>calculator</dc:title>
      </cc:Work>
    </rdf:RDF>
  </metadata>
  <defs
     id="defs83">
    <linearGradient
       inkscape:collect="always"
       id="linearGradient914">
      <stop
         style="stop-color:#ff9eaa;stop-opacity:1"
         offset="0"
         id="stop910" />
      <stop
         style="stop-color:#3aa6b9;stop-opacity:1"
         offset="1"
         id="stop912" />
    </linearGradient>
    <linearGradient
       inkscape:collect="always"
       xlink:href="#linearGradient914"
       id="linearGradient916"
       x1="186.92909"
       y1="64.674438"
       x2="25.02203"
       y2="226.5815"
       gradientUnits="userSpaceOnUse" />
  </defs>
  <sodipodi:namedview
     pagecolor="#ffffff"
     bordercolor="#666666"
     borderopacity="1"
     objecttolerance="10"
     gridtolerance="10"
     guidetolerance="10"
     inkscape:pageopacity="0"
     inkscape:pageshadow="2"
     inkscape:window-width="1366"
     inkscape:window-height="705"
     id="namedview81"
     showgrid="false"
     inkscape:zoom="0.3546875"
     inkscape:cx="349.23073"
     inkscape:cy="324.83464"
     inkscape:window-x="-8"
     inkscape:window-y="-8"
     inkscape:window-maximized="1"
     inkscape:current-layer="svg79" />
  <title
     id="title71">calculator</title>
  <rect
     style="font-variation-settings:normal;opacity:1;vector-effect:none;fill:#f9f9e0;fill-opacity:1;fill-rule:evenodd;stroke:none;stroke-width:0.193311;stroke-linecap:round;stroke-linejoin:miter;stroke-miterlimit:4;stroke-dasharray:none;stroke-dashoffset:0;stroke-opacity:1;paint-order:markers stroke fill;stop-color:#000000;stop-opacity:1"
     id="rect918"
     width="216.38766"
     height="197.35683"
     x="16.211454"
     y="27.488987" />
  <path
     d="M 26.024813,0 C 12.368387,0 0,12.376387 0,26.024813 V 229.97519 C 0,243.63161 12.376387,256 26.024813,256 H 229.97519 C 243.63161,256 256,243.62361 256,229.97519 V 26.024813 C 256,12.368387 243.62361,0 229.97519,0 Z m 42.24132,34.137067 c 2.56008,0 4.264134,1.704053 4.264134,4.264133 v 29.864933 h 30.296943 c 2.56008,0 4.69615,1.704054 4.69615,4.264134 0,2.56008 -2.13607,4.264133 -4.69615,4.264133 H 72.530267 v 29.86493 c 0,2.56008 -1.704054,4.26414 -4.264134,4.26414 -2.56008,0 -4.264133,-1.70406 -4.264133,-4.26414 V 76.7944 H 36.697147 c -2.56008,0 -4.696147,-1.704053 -4.696147,-4.264133 0,-2.56008 2.136067,-4.264134 4.696147,-4.264134 H 64.002 V 38.4012 c 0,-2.56008 1.704053,-4.264133 4.264133,-4.264133 z m 84.914657,34.129066 h 66.13806 c 2.56008,0 4.69615,1.704054 4.69615,4.264134 0,2.56008 -2.13607,4.264133 -4.69615,4.264133 h -66.13806 c -2.56008,0 -4.69615,-1.704053 -4.69615,-4.264133 0,-2.56008 2.13607,-4.264134 4.69615,-4.264134 z M 46.297447,151.04472 c 1.176037,0 2.344073,0.42401 3.2001,1.28004 L 69.642176,172.46939 89.6028,152.32476 c 1.704053,-1.70405 4.696147,-1.70405 6.4002,0 1.704053,1.70405 1.704053,4.69615 0,6.4002 L 76.042376,178.86959 96.003,198.83021 c 1.704053,1.70406 1.704053,4.69615 0,6.4002 -1.704053,1.70406 -4.696147,1.70406 -6.4002,0 l -19.936623,-19.93662 -20.17663,20.36064 c -1.704054,1.70405 -4.696147,1.70405 -6.4002,0 -1.704054,-1.70406 -1.704054,-4.69615 0,-6.4002 l 20.17663,-20.36064 -20.17663,-20.17663 c -1.704054,-1.70405 -1.704054,-4.69615 0,-6.4002 0.856026,-0.85603 2.024063,-1.28004 3.2001,-1.28004 z m 106.883343,6.82421 h 66.13806 c 2.56008,0 4.69615,1.70406 4.69615,4.26414 0,2.56008 -2.13607,4.26413 -4.69615,4.26413 h -66.13806 c -2.56008,0 -4.69615,-1.70405 -4.69615,-4.26413 0,-2.56008 2.13607,-4.26414 4.69615,-4.26414 z m 0,34.13707 h 66.13806 c 2.56008,0 4.69615,1.70405 4.69615,4.26413 0,2.56008 -2.13607,4.26414 -4.69615,4.26414 h -66.13806 c -2.56008,0 -4.69615,-1.70406 -4.69615,-4.26414 0,-2.56008 2.13607,-4.26413 4.69615,-4.26413 z"
     id="path73"
     style="stroke-width:8.00025;fill:url(#linearGradient916);fill-opacity:1" />
</svg>
